# xmcd
#
# Track frame offsets: 
#        183
#        23365
#        35585
#        57923
#        69850
#        81125
#        91723
#        102600
#        119755
#        138520
#        169005
#        182325
#        194900
#        211703
#        217868
#        226945
#
# Disc length: 3275 seconds
#
# Revision: 7
# Processed by: cddbd v1.5.2PL0 Copyright (c) Steve Scherf et al.
# Submitted via: ExactAudioCopyFreeDBPlugin 1.0
#
DISCID=d30cc910
DTITLE=Various Artist - Blues Collection Vol2
DYEAR=1991
DGENRE=Blues
TTITLE0=John Mayall - Baby What You Want Me To Do
TTITLE1=Johnny Winter - Leavin' Blues
TTITLE2=BB King - Everyday I Have The Blues
TTITLE3=Hall and Oates - Deep River Blues
TTITLE4=Nina Simone - Backlash Blues
TTITLE5=Mike Bloomfield - Rx For The Blues
TTITLE6=Muddy Waters - Diamonds At Your Feet
TTITLE7=John Lee Hooker - Blues Before Sumrise
TTITLE8=Eric Clapton and The Yardbirds - They Call It Stormy Monday
TTITLE9=Big Joe Turner - How Long Blues
TTITLE10=Ella Fitzgerald - Sugar Blues
TTITLE11=Howlin' Wolf - Ain't Superstitous
TTITLE12=Johnny Winter - Kind Hearted Woman
TTITLE13=Leadbelly - Who Back Buck
TTITLE14=Jeff Beck - Ain't Got You
TTITLE15=John Mayall - John Lee Boogie
EXTD=YEAR: 1991
EXTT0=
EXTT1=
EXTT2=
EXTT3=
EXTT4=
EXTT5=
EXTT6=
EXTT7=
EXTT8=
EXTT9=
EXTT10=
EXTT11=
EXTT12=
EXTT13=
EXTT14=
EXTT15=
PLAYORDER=
